<?xml version="1.0" encoding="UTF-8" standalone="no"?>
<svg
   xmlns:dc="http://purl.org/dc/elements/1.1/"
   xmlns:cc="http://creativecommons.org/ns#"
   xmlns:rdf="http://www.w3.org/1999/02/22-rdf-syntax-ns#"
   xmlns:svg="http://www.w3.org/2000/svg"
   xmlns="http://www.w3.org/2000/svg"
   xmlns:sodipodi="http://sodipodi.sourceforge.net/DTD/sodipodi-0.dtd"
   xmlns:inkscape="http://www.inkscape.org/namespaces/inkscape"
   width="210mm"
   height="297mm"
   viewBox="0 0 210 297"
   version="1.1"
   id="svg1095"
   inkscape:version="1.0.1 (3bc2e813f5, 2020-09-07)"
   sodipodi:docname="uniqueright.svg">
  <defs
     id="defs1089" />
  <sodipodi:namedview
     id="base"
     pagecolor="#ffffff"
     bordercolor="#666666"
     borderopacity="1.0"
     inkscape:pageopacity="0.0"
     inkscape:pageshadow="2"
     inkscape:zoom="0.35"
     inkscape:cx="400"
     inkscape:cy="560"
     inkscape:document-units="mm"
     inkscape:current-layer="layer1"
     inkscape:document-rotation="0"
     showgrid="false"
     inkscape:window-width="1313"
     inkscape:window-height="1030"
     inkscape:window-x="32"
     inkscape:window-y="0"
     inkscape:window-maximized="0" />
  <metadata
     id="metadata1092">
    <rdf:RDF>
      <cc:Work
         rdf:about="">
        <dc:format>image/svg+xml</dc:format>
        <dc:type
           rdf:resource="http://purl.org/dc/dcmitype/StillImage" />
        <dc:title></dc:title>
      </cc:Work>
    </rdf:RDF>
  </metadata>
  <g
     inkscape:label="Ebene 1"
     inkscape:groupmode="layer"
     id="layer1">
    <path
       style="fill:#ee9b02;fill-opacity:1;stroke-width:0.49199"
       d="m 205.83899,6.1038 c 0.0439,-0.02264 0.0941,0.02831 0.14529,0.153413 0.13644,0.338529 0.67239,0.614164 1.19104,0.614164 1.00928,0 1.29204,1.202512 0.41084,1.747158 -0.30674,0.189644 -0.39433,0.873381 -0.20853,1.614295 0.31068,1.237894 0.28734,1.25482 -0.6142,0.438728 -1.25426,-1.135089 -1.9391,-1.06778 -2.6373,0.259275 -0.32031,0.608842 -1.0835,1.709399 -1.6963,2.446407 -0.68694,0.826394 -1.01456,1.722759 -0.85384,2.337489 0.18148,0.693983 0.0223,0.997017 -0.52498,0.997017 -0.43226,0 -0.92589,0.555912 -1.09663,1.235686 -0.17066,0.679888 -0.65637,1.429689 -1.08002,1.667225 -0.42367,0.237197 -0.82904,0.843039 -0.90054,1.346642 -0.3817,2.679245 -1.04587,4.351565 -1.69422,4.269254 -0.8254,-0.105295 -3.06699,2.542814 -3.15397,3.725682 -0.0328,0.445522 -0.24333,1.107634 -0.46792,1.471128 -0.25165,0.407593 -0.15404,0.818865 0.25523,1.071743 0.51547,0.318149 0.44675,0.480054 -0.30606,0.719005 -0.53363,0.169265 -1.30179,0.481186 -1.70772,0.692003 -0.86477,0.449484 -1.29607,2.497242 -0.52599,2.497242 0.28932,0 0.52599,0.442126 0.52599,0.983488 0,0.541193 -0.25077,0.98462 -0.55712,0.98462 -0.70673,0 -2.39557,1.921745 -2.39557,2.726514 0,0.334566 -0.38663,0.579122 -0.86007,0.539495 -0.55126,-0.04529 -0.91855,0.340227 -1.02194,1.068629 -0.0888,0.625429 -0.47718,1.258047 -0.86216,1.4058 -0.84644,0.324942 -0.91613,1.718004 -0.12551,2.508621 0.43752,0.437597 0.37475,0.650451 -0.26664,0.896422 -0.77749,0.298335 -0.78074,0.391176 -0.0436,1.205513 0.74821,0.826847 0.68372,0.934916 -1.03231,1.749253 -1.0065,0.477789 -1.93577,1.27135 -2.06459,1.763745 -0.1393,0.532701 -0.6844,0.895346 -1.34667,0.895346 -1.23939,0 -2.54455,2.370153 -2.03555,3.696528 0.19592,0.510624 -0.1071,0.91482 -0.91819,1.223232 -0.80346,0.305695 -1.11443,0.713741 -0.92232,1.213891 0.20635,0.53723 -0.0247,0.754217 -0.80509,0.754217 -0.90153,0 -1.05283,0.215685 -0.85905,1.229459 0.12941,0.676434 0.0454,1.230421 -0.18779,1.230421 -0.23295,0 -0.42432,0.324376 -0.42432,0.722119 0,0.397403 -0.28676,0.612635 -0.63702,0.478356 -0.74735,-0.287014 -2.55278,3.428649 -2.05631,4.23189 0.1784,0.288712 -0.24457,1.013718 -0.93997,1.611238 -0.69543,0.597577 -1.40644,1.79624 -1.5801,2.664243 -0.18522,0.926198 -0.69775,1.700115 -1.24083,1.87272 -0.97128,0.308525 -1.30278,1.703512 -0.40462,1.703512 0.28661,0 0.37765,0.232101 0.20231,0.515718 -0.21526,0.348152 -0.56192,0.314186 -1.06654,-0.104729 -0.61629,-0.511755 -0.87128,-0.450616 -1.45352,0.345322 -1.15752,1.58265 -1.31977,3.099462 -0.47102,4.394815 1.08075,1.649223 1.00171,1.895364 -0.48556,1.52202 -1.46132,-0.366834 -2.72941,0.43986 -2.33019,1.480525 0.14799,0.386081 0.007,0.701286 -0.31125,0.701286 -0.69503,0 -1.98472,1.217231 -1.98472,1.872663 0,0.25701 -0.33278,0.742329 -0.73869,1.079046 -0.45805,0.38042 -0.73766,1.461957 -0.73766,2.850999 0,2.196587 -0.98619,4.036246 -2.16731,4.039983 -0.2963,0.0011 -1.24441,0.663527 -2.10715,1.472203 -1.31797,1.235403 -1.52675,1.728647 -1.3062,3.087573 0.22282,1.372796 0.0692,1.720042 -1.01466,2.300128 -1.35363,0.72444 -1.58913,1.24972 -0.78434,1.7471 0.27059,0.167 0.49177,0.63873 0.49177,1.04684 0,0.51798 -0.29641,0.64773 -0.98355,0.42967 -1.03559,-0.32891 -1.31062,0.21455 -0.51255,1.01258 0.29437,0.29211 0.29998,0.75037 0.0164,1.20557 -0.37334,0.60001 -0.63433,0.623 -1.43382,0.12737 -0.83605,-0.51798 -1.08828,-0.44891 -1.73779,0.47836 -0.41756,0.59627 -0.75945,1.68732 -0.75945,2.42359 0,0.81683 -0.41648,1.62975 -1.06965,2.08744 -0.93336,0.6538 -0.9966,0.91154 -0.49488,2.01272 0.49075,1.07701 0.44835,1.30277 -0.28328,1.53238 -2.22104,0.69744 -3.07096,1.20721 -3.07096,1.84051 0,0.37872 -0.34244,0.97256 -0.76049,1.3197 -0.41823,0.34701 -0.64646,0.92982 -0.50626,1.29478 0.14005,0.36514 -0.18229,0.9356 -0.71588,1.26881 -0.56807,0.35494 -0.97004,1.14561 -0.97004,1.90691 0,0.88538 -0.31317,1.38123 -0.98147,1.55627 -1.54893,0.40476 -1.66311,1.59669 -0.28532,2.97446 1.36978,1.36991 1.26715,3.10014 -0.14933,2.51383 -2.19305,-0.90774 -2.52007,-0.84739 -2.52007,0.46251 0,1.02804 -0.23607,1.28754 -1.17029,1.28754 -1.44697,0 -2.74131,2.53341 -1.8457,3.61252 0.62586,0.7541 0.25854,1.29971 -0.87875,1.31454 -0.42843,0.005 -1.08438,0.2004 -1.45767,0.43703 -0.5727,0.36287 -0.56344,0.66007 0.0602,1.90997 0.85162,1.70731 0.60793,2.26673 -1.07276,2.45371 -1.61875,0.18002 -1.69921,0.32608 -1.11115,2.01272 0.54023,1.54987 0.35925,2.03553 -0.75842,2.03553 -1.01668,0 -2.37903,1.48918 -1.72949,1.89032 0.66354,0.41043 -0.88405,2.44743 -1.66206,2.1881 -0.29522,-0.0985 -0.9054,0.38438 -1.35703,1.07378 -0.61517,0.93905 -0.69394,1.49009 -0.31436,2.19947 0.69725,1.3056 0.63531,1.65862 -0.23136,1.32593 -0.44966,-0.17267 -0.73869,-0.002 -0.73869,0.43872 0,0.44213 -0.47575,0.72314 -1.22942,0.72314 -0.67649,0 -1.23047,0.22135 -1.23047,0.49194 0,0.2706 0.26024,0.49195 0.57787,0.49195 0.31775,0 0.0577,0.55421 -0.57787,1.23042 -0.63556,0.67649 -1.39446,1.22946 -1.68696,1.22946 -0.29268,0 -0.84096,0.69636 -1.21801,1.54794 -0.54584,1.23286 -0.56299,1.74399 -0.0861,2.50761 0.48668,0.7794 0.4539,1.11844 -0.17323,1.81146 -0.42418,0.46874 -0.77189,1.41956 -0.77189,2.1123 0,0.69279 -0.27603,1.25153 -0.6142,1.2367 -0.33818,-0.0113 -1.37901,0.0113 -2.31256,0.0566 -1.32001,0.06 -1.56618,0.20889 -1.10701,0.66817 0.81143,0.81168 0.73947,1.27543 -0.22718,1.46388 -0.4496,0.0877 -1.08399,0.9339 -1.40996,1.88099 -0.45328,1.3172 -0.83942,1.69417 -1.64028,1.60501 -0.74789,-0.0832 -1.42924,0.46081 -2.38416,1.90374 l -1.33628,2.02104 1.08729,0.88085 c 1.22187,0.98927 1.45567,2.44533 0.39219,2.44533 -0.3833,0 -0.82679,0.27683 -0.98456,0.61524 -0.22961,0.49195 -0.34402,0.49195 -0.57374,0 -0.53791,-1.15264 -2.447385,-0.65911 -3.628095,0.93792 -1.2569,1.7 -0.95887,2.97458 0.76981,3.29194 1.791125,0.32833 1.900075,1.05708 0.1691,1.13395 -0.93353,0.0396 -1.91941,0.12568 -2.19015,0.18908 -0.27059,0.0623 -0.98992,0.14153 -1.59878,0.17096 -1.64041,0.0844 -1.41521,1.52219 0.24586,1.57184 0.78196,0.0226 1.04171,0.15568 0.61525,0.31645 -0.4059,0.15285 -1.26034,0.47156 -1.89862,0.70757 -0.93967,0.34759 -1.04833,0.56327 -0.57373,1.13498 0.32257,0.38834 0.44179,1.16028 0.26562,1.71495 -0.24756,0.77969 -0.59162,0.94069 -1.51681,0.70864 -0.86924,-0.21795 -1.19622,-0.0979 -1.19622,0.4376 0,0.40589 -0.57532,0.88221 -1.27818,1.05821 -1.02284,0.25701 -1.22259,0.53893 -1.00118,1.42035 0.20521,0.81768 -0.003,1.2225 -0.81341,1.57801 -0.59894,0.26267 -1.1099,0.92065 -1.13917,1.46184 -0.0991,1.94569 -0.206,2.21402 -0.88187,2.21402 -0.37725,0 -1.39684,0.66455 -2.26587,1.47634 -0.869,0.81173 -1.8085,1.47531 -2.08847,1.47531 -0.86291,0 -1.81542,1.64911 -1.83221,3.17159 -0.0108,0.89631 0.4603,1.94535 1.2315,2.7504 0.83415,0.87055 1.2818,1.93771 1.3529,3.22451 0.10003,1.8151 0.19276,1.92016 1.62367,1.86021 1.00173,-0.0396 1.71447,0.25079 2.09572,0.8611 0.39134,0.62673 0.40719,0.92444 0.0498,0.92444 -0.29874,0 -0.46098,0.69342 -0.37352,1.59879 0.0847,0.87944 0.39163,1.59872 0.68164,1.59872 0.2899,0 0.92204,0.39458 1.40477,0.87774 0.49862,0.49874 1.25431,0.75841 1.74921,0.60171 1.03551,-0.3289 1.73819,1.55808 0.93894,2.52114 -0.36565,0.44042 -0.16983,0.82718 0.7117,1.40478 0.66887,0.43816 1.34677,1.31397 1.50539,1.94631 0.17244,0.68713 0.78439,1.2748 1.522,1.45975 0.67888,0.17039 1.26565,0.69234 1.30724,1.16096 0.0402,0.46816 0.0942,1.19759 0.12341,1.62058 0.0277,0.42287 0.60377,1.59193 1.28026,2.59682 0.97001,1.44038 1.46271,1.77008 2.33228,1.55932 0.917025,-0.22247 1.082325,-0.0804 0.983535,0.84559 -0.0879,0.82526 0.16852,1.15541 0.98873,1.27299 1.21243,0.17379 1.4399,1.03653 0.51668,1.95979 -0.45922,0.4591 -0.24744,0.59033 0.9545,0.59033 0.84991,0 1.68244,0.22078 1.84983,0.49194 0.16723,0.2706 -0.0408,0.49194 -0.46273,0.49194 -0.4218,0 -0.76774,0.22078 -0.76774,0.49194 0,0.27003 0.22208,0.49308 0.49279,0.49308 0.27059,0 0.49177,0.33173 0.49177,0.73768 0,0.41892 -0.44088,0.73763 -1.01883,0.73763 -0.92651,0 -0.94973,0.0702 -0.24693,0.77296 0.8945,0.89444 1.00446,1.97881 0.24795,2.44641 -0.28916,0.17888 -0.39293,0.66941 -0.23136,1.09036 0.16156,0.42118 -0.26601,1.61152 -0.95034,2.64562 -0.68431,1.03404 -1.24499,2.09543 -1.24499,2.35821 0,0.26267 -0.38659,0.70978 -0.86009,0.9939 -0.819975,0.49195 -0.819975,0.5412 0,1.03337 0.91747,0.55025 1.18587,1.9432 0.37454,1.9432 -0.82844,0 -2.098525,3.59514 -1.572815,4.45187 0.5648,0.92031 -0.38002,2.43605 -1.5189,2.43605 -0.5074,0 -0.87565,0.66036 -1.09662,1.96811 -0.18285,1.08238 -0.55835,1.96811 -0.83415,1.96811 -0.27569,0 -0.36694,0.34815 -0.20334,0.77397 0.16349,0.42627 -0.0521,1.12405 -0.4783,1.55004 -0.42633,0.42628 -0.66897,1.1763 -0.54051,1.66723 0.12833,0.49081 -0.0765,1.14896 -0.45441,1.46286 -0.37782,0.31362 -0.68741,1.04072 -0.68786,1.61639 -5.4e-4,0.57572 -0.66479,1.822 -1.47531,2.76908 -0.81054,0.94703 -1.4738,2.00762 -1.47427,2.35719 -10e-4,1.1703 -4.70412,5.02245 -6.13055,5.02245 -0.97523,0 -1.72538,-1.87424 -1.50021,-3.74946 0.11039,-0.91963 -0.26431,-2.05381 -1.06758,-3.23283 -0.68053,-0.99877 -1.09208,-2.05031 -0.91505,-2.33641 0.17707,-0.28645 -0.0232,-0.52082 -0.44507,-0.52082 -0.56491,0 -0.7667,-0.51062 -0.7667,-1.93595 0,-2.59388 -0.7822,-4.49892 -1.97435,-4.81084 -1.20862,-0.31589 -1.26994,-1.39844 -0.1173,-2.06978 0.47513,-0.27626 0.69576,-0.53836 0.49285,-0.57788 -0.20301,-0.0453 -0.59038,-0.13247 -0.86112,-0.2004 -0.2706,-0.0674 -0.6105,-0.14888 -0.75531,-0.18342 -0.1448,-0.034 -0.0119,-0.53326 0.29676,-1.1091 0.43629,-0.8153 0.41387,-1.13622 -0.10173,-1.45454 -0.52682,-0.32551 -0.53735,-0.53327 -0.051,-1.01989 0.82345,-0.82334 0.77348,-1.89027 -0.0882,-1.89027 -0.38444,0 -0.83361,-0.61195 -0.99808,-1.36017 -0.23102,-1.05182 -0.7403,-1.49853 -2.24513,-1.96811 -1.07057,-0.33456 -2.28217,-0.60799 -2.69228,-0.60799 -0.41014,0 -0.74492,-0.22078 -0.74492,-0.49194 0,-0.27003 0.56732,-0.49195 1.26159,-0.49195 1.01764,0 2.78725,-0.61201 3.54614,-1.22628 0.074,-0.06 -0.005,-0.47213 -0.17532,-0.91715 -0.20504,-0.53439 -0.88737,-0.80822 -2.01273,-0.80822 -1.53804,0 -1.67001,-0.10699 -1.36326,-1.10701 0.18664,-0.60878 0.54176,-1.36096 0.78952,-1.67136 0.32387,-0.40589 -0.38331,-0.66149 -2.52006,-0.90989 -1.63368,-0.18965 -2.97034,-0.51572 -2.97034,-0.72523 0,-0.2089 1.10691,-0.52704 2.4599,-0.7065 1.353,-0.17945 2.45988,-0.56384 2.45988,-0.85385 0,-0.29041 -0.34781,-0.39457 -0.77292,-0.23153 -0.60317,0.2321 -0.7387,0.0113 -0.61523,-1.02923 0.12267,-1.03042 -0.0854,-1.38746 -0.93375,-1.59771 -0.83007,-0.2055 -0.97946,-0.44666 -0.62249,-1.00738 0.70536,-1.10831 0.69699,-1.1228 -2.36236,-4.31805 -2.71968,-2.84058 -3.56572,-4.80433 -2.40907,-5.59002 0.26296,-0.17833 0.2813,-0.60375 0.0436,-0.98457 -0.22989,-0.36853 -0.46516,-0.98139 -0.52291,-1.36221 -0.15092,-0.99888 -1.69439,-2.34943 -3.12077,-2.73172 -0.95984,-0.25758 -1.06764,-0.21285 -0.49177,0.20323 0.646,0.46703 0.63033,0.59633 -0.12341,1.04061 -0.47349,0.27909 -0.86111,0.93927 -0.86111,1.46705 0,0.64117 -0.33637,0.95864 -1.01468,0.95864 -0.67204,0 -0.98563,0.29097 -0.9275,0.86109 0.17006,1.67215 -0.0345,2.13319 -0.88602,1.98991 -0.67221,-0.11266 -0.89436,0.2604 -1.01364,1.70045 -0.0884,1.06801 0.0662,1.84464 0.36831,1.84464 0.2869,0 0.52189,0.23663 0.52189,0.52478 0,0.30116 -0.41909,0.39174 -0.98356,0.21285 -0.68725,-0.21795 -0.98457,-0.0877 -0.98457,0.43081 0,1.19922 -0.97156,1.4551 -1.99821,0.5259 -0.91532,-0.82764 -0.95345,-0.81943 -0.95345,0.19814 0,0.59809 -0.31056,1.05929 -0.71276,1.05929 -0.39213,0 -1.33209,0.83092 -2.08847,1.84566 -0.75633,1.01473 -1.59752,2.02777 -1.86955,2.25138 -0.32256,0.26494 -0.28056,0.49308 0.12041,0.65566 1.12222,0.45515 0.63563,1.56074 -0.82791,1.88201 -1.58511,0.34815 -2.73813,1.42787 -2.2939,2.1466 0.15624,0.25248 -0.46647,0.59984 -1.384,0.77187 -1.91921,0.36004 -2.89665,1.30447 -2.47857,2.39456 0.18772,0.48911 -0.0696,0.8697 -0.72936,1.07899 -0.64374,0.20436 -1.01985,0.74312 -1.01985,1.46076 0,0.62509 -0.34611,1.42358 -0.76982,1.77513 -0.42378,0.35155 -1.09744,1.2722 -1.4971,2.04493 -0.41881,0.80986 -0.95853,1.26138 -1.27404,1.06653 -0.30665,-0.18964 -0.4094,-0.11718 -0.23448,0.16587 0.17142,0.27739 -0.7362,1.51704 -2.01584,2.75453 -3.96203,3.83138 -5.03183,5.00394 -5.03183,5.51321 0,0.27059 -0.44337,0.76831 -0.98457,1.10599 -0.5412,0.33796 -0.98355,0.91929 -0.98355,1.29167 0,0.3725 -0.5711,1.05131 -1.26884,1.50849 -0.79197,0.51912 -1.16121,1.11143 -0.9825,1.57699 0.15737,0.41043 0.12833,1.00166 -0.0653,1.31557 -0.19361,0.31362 -0.28883,1.17918 -0.21059,1.92349 0.078,0.74431 -0.0962,1.35395 -0.38699,1.35395 -0.29092,0 -0.52913,-0.22135 -0.52913,-0.49194 0,-0.91075 -2.45535,-0.55422 -2.53563,0.36853 -0.0408,0.47326 -0.12613,1.08261 -0.18886,1.35287 -0.0628,0.27059 -0.14197,0.77986 -0.17118,1.13192 -0.0311,0.35211 -0.83118,0.96441 -1.77826,1.36011 -1.75946,0.7352 -2.19952,1.44894 -1.1153,1.81045 0.33388,0.11152 -0.44128,0.60199 -1.72225,1.09144 -1.28098,0.48912 -2.32915,1.0551 -2.32915,1.25743 0,0.61733 -2.6652803,0.92093 -3.3210203,0.37872 -0.42831,-0.35438 -0.83205,-0.32834 -1.3311,0.0861 -0.39401,0.32721 -0.96438,0.44156 -1.26781,0.25418 -0.30315,-0.18738 -0.96003,0.0985 -1.45975,0.63494 v 0.001 c -1.20164,1.28981 -3.02680002,0.9172 -3.82833002,-0.78127 -0.50241,-1.06258 -0.50224,-1.4122 0.003,-1.8104 0.7807,-0.61546 0.92278002,-2.83628 0.21059,-3.29193 -0.35772,-0.22871 -0.27677,-0.62917 0.24693,-1.23048 0.42684002,-0.49024 0.80385002,-1.22272 0.83311002,-1.62884 0.0317,-0.4059 0.19547,-1.45703 0.36621,-2.33647 0.24654,-1.27118 0.1477,-1.59873 -0.48345,-1.59873 -1.12501002,0 -0.98694002,-0.81932 0.18987,-1.12671 0.64207,-0.16813 0.98459,-0.67185 0.98459,-1.44837 0,-0.65464 0.54674,-1.70351 1.2149,-2.33121 0.66797,-0.62775 1.09107,-1.34086 0.93997,-1.58531 -0.15081,-0.24399 -0.13213,-0.81456 0.0413,-1.26784 0.26262,-0.68419 0.38812,-0.70621 0.74389,-0.13077 0.34668,0.56158 0.56998,0.57539 1.17443,0.0736 0.41037,-0.3408 0.6254,-0.93543 0.47723,-1.32174 -0.17533,-0.45627 0.0587,-0.70134 0.66917,-0.70134 1.20027,0 2.11591,-0.91074 1.7845,-1.77411 -0.28719,-0.74855 2.2095303,-3.6385 3.1435803,-3.6385 0.7502,0 1.61849,-1.57251 1.61849,-2.93195 0,-0.64683 0.46007,-1.20365 1.24083,-1.50017 1.01645,-0.38665 1.18507,-0.6963 0.93064,-1.70979 -0.20906,-0.83376 -0.10756,-1.23773 0.31124,-1.23773 0.34204,0 1.38219,-0.57952 2.31049,-1.28754 1.17966,-0.89976 1.61329,-1.56878 1.44212,-2.22336 -0.17538,-0.67083 0.16179,-1.14698 1.18791,-1.67759 0.78785,-0.40759 1.43278,-0.97284 1.43278,-1.25748 0,-0.28418 0.6764,-1.19408 1.50334,-2.02098 0.88917,-0.88906 1.38808,-1.80405 1.22112,-2.23893 -0.15517,-0.4042 0.10993,-1.0221 0.58826,-1.37365 0.47824,-0.35154 0.8694,-1.12382 0.8694,-1.71602 0,-0.79209 0.44864,-1.22351 1.70045,-1.63507 1.07449,-0.35325 2.19457,-1.28437 3.03882,-2.5273 l 1.33629,-1.96811 -1.27507,-0.67332 -1.27612,-0.6744 1.51991,-0.63913 c 0.83587,-0.35154 1.76418,-1.09444 2.06253,-1.65165 0.29817,-0.55705 1.12255,-1.59347 1.83222,-2.30324 0.70707,-0.70695 0.98498,-1.13328 0.89328,-1.42029 0.92467,-0.26154 1.85042,-0.55875 2.61448,-0.81655 0.0904,0.0226 0.0294,0.0113 0.1546,0.0396 0.12834,-0.051 0.0779,-0.034 0.18778,-0.0759 0.81618,0.0855 1.9619,0.12964 2.50553,-0.25135 3.05456,-2.13816 6.19114,-4.5591 7.99801,-7.82058 0.63184,-1.14052 -0.26001,-3.37747 -1.66828,-5.79959 0.37595,-0.34759 0.52772,-0.77024 0.54051,-1.35389 0.0147,-0.65215 0.18331,-1.44203 0.37663,-1.7544 0.48317,-0.78173 -1.91542,-3.2822 -2.81678,-2.93609 -0.93467,0.35891 -1.25367,-0.61292 -0.64637,-1.96811 0.36338,-0.81088 0.21812,-1.60886 -0.59966,-3.29822 -1.13185,-2.33788 -2.28311,-3.05366 -4.02339,-2.50137 -1.03134,0.32721 -1.03374,0.31475 -0.16394,-1.15785 0.82851,-1.40246 0.83191,-1.56085 0.0476,-2.75765 -0.45758,-0.69834 -1.32507,-1.30497 -1.92765,-1.3446 -0.60261,-0.0396 -1.42837,-0.1002 -1.83428,-0.13473 -0.41178,-0.034 -0.67323,-0.43534 -0.59241,-0.90882 0.0851,-0.50044 -0.16802,-0.84864 -0.61523,-0.84864 -1.17585,0 -0.89597,-0.89241 0.34753,-1.10809 1.03617,-0.18002 1.01234,-0.23324 -0.36932,-0.83098 l -1.47632,-0.63913 1.37362,-0.48005 c 1.1054,-0.38722 1.26186,-0.61604 0.80096,-1.17132 -0.31504,-0.37986 -0.89825,-0.68991 -1.29583,-0.68991 -1.02943,0 -2.96099,-1.62505 -2.73587,-2.3012 0.1041,-0.31249 -0.24727,-0.70605 -0.78123,-0.87565 -0.82056,-0.26041 -0.90477,-0.5378 -0.54572,-1.78967 0.44077,-1.53685 0.31838,-1.6794 -1.73572,-2.03344 -0.62134,-0.10699 -0.92899,-0.48741 -0.83518,-1.03025 0.0999,-0.57867 -0.32952,-1.02634 -1.31346,-1.36951 -1.95004,-0.67972 -2.35512,-1.81713 -0.78642,-2.21085 1.6256,-0.40816 1.52977,-1.41078 -0.2625,-2.73586 -1.01884,-0.75325 -1.47636,-1.51069 -1.47636,-2.4464 0,-1.70391 -1.59277,-2.88208 -3.92275,-2.90189 -1.41751,-0.0113 -1.57679,-0.107 -0.87357,-0.51685 1.15291,-0.67151 1.08358,-1.17812 -0.24693,-1.81974 -0.8814,-0.42514 -0.93141,-0.54289 -0.24592,-0.56751 1.03836,-0.0396 1.14312,-0.94036 0.15359,-1.3197 -0.38937,-0.14945 -0.85546,-0.94182 -1.03542,-1.76063 -0.40465,-1.84215 -1.56332,-3.28107 -3.1768,-3.94454 -0.72049,-0.29607 -0.97555,-0.60063 -0.61522,-0.73452 0.97272,-0.36117 0.72563,-2.1775 -0.33406,-2.45472 -0.52251,-0.13643 -1.06926,-0.55875 -1.2149,-0.93786 -0.14544,-0.37929 -0.73795,-0.68889 -1.31658,-0.68889 -0.67663,0 -0.9627,-0.2355 -0.7999,-0.65883 0.13898,-0.36231 0.10048,-1.40557 -0.0861,-2.31773 -0.30931,-1.51263 -0.50196,-1.66372 -2.1880603,-1.72225 -2.5976,-0.09 -3.38389,-0.9981 -1.86126,-2.14864 1.19847,-0.90542 1.07671,-2.00859 -0.22203,-2.00859 -0.96444,0 -0.90033,-0.23549 0.46788,-1.71183 0.64737,-0.69851 1.18879,-1.76165 1.20558,-2.3624 0.0762,-2.87381 0.39774,-3.47841 2.1756103,-4.09393 2.47101,-0.85572 11.08745,-0.65871 11.65933,0.26664 0.35823,0.57946 0.63328,0.55364 1.72845,-0.16417 0.7161,-0.4693 2.41056,-0.93583 3.76609,-1.03642 1.35552,-0.10077 2.81752,-0.4744 3.24838,-0.83002 0.62095,-0.51402 0.82594,-0.52025 0.9908,-0.0283 0.11503,0.34136 0.46443,0.45118 0.78123,0.24569 0.31515,-0.20493 1.73433,-0.37136 3.15397,-0.37136 2.28416,0 2.58176,0.11718 2.58336,1.0209 10e-4,1.07039 1.60622,2.79903 3.08134,3.31996 0.47598,0.16813 0.80798,0.57822 0.73765,0.91193 -0.0701,0.33344 0.15704,0.61394 0.50525,0.62877 0.34815,0.0113 0.83398,0.34759 1.08003,0.74595 0.24602,0.39797 0.60489,0.56639 0.79784,0.37363 0.19275,-0.19304 0.65299,-0.0996 1.02295,0.20776 0.56435,0.46817 0.54448,0.70066 -0.1255,1.44107 -0.92842,1.02589 -0.55982,1.9287 0.78746,1.9287 0.63102,0 0.84653,0.2406 0.65569,0.73763 -0.15647,0.40703 -0.0147,0.73763 0.31645,0.73763 0.41847,0 0.50151,0.51968 0.27598,1.72225 -0.25594,1.36442 -0.16462,1.72225 0.43782,1.72225 0.4179,0 0.75943,0.31306 0.75943,0.69614 0,0.38325 0.27711,0.8269 0.61525,0.98462 0.492,0.22984 0.492,0.34419 0,0.57369 -0.73108,0.34136 -0.8285,1.68076 -0.12239,1.68076 0.27065,0 0.49177,0.52817 0.49177,1.17341 0,0.77647 0.3477,1.26405 1.03022,1.44209 0.85876,0.22474 0.97644,0.51515 0.70654,1.74506 -0.26086,1.18751 -0.12404,1.58231 0.70135,2.02415 0.56417,0.3023 1.28055,0.39231 1.5915,0.2004 0.37748,-0.2338 0.4556,-0.0781 0.2355,0.46874 -0.18132,0.45005 -0.46363,1.15009 -0.62767,1.55621 -0.20572,0.50835 0.006,0.73869 0.67747,0.73869 0.86679,0 0.94786,0.24909 0.72521,2.2254 -0.19474,1.72775 -0.0459,2.45337 0.66814,3.24218 0.50582,0.55874 0.94598,1.27345 0.97524,1.58735 0.03,0.31418 0.0881,0.82079 0.1297,1.12773 0.0413,0.30684 0.51702,0.67417 1.05824,0.81548 0.5412,0.14152 0.98457,0.61024 0.98457,1.04168 0,0.92507 1.0315,1.03097 1.86956,0.19303 0.71569,-0.71583 0.74449,-0.37193 0.10994,1.29683 -0.38059,1.0012 -0.32992,1.26162 0.24586,1.26162 1.03803,0 0.89639,0.7519 -0.29154,1.54063 -0.87896,0.58349 -0.9456,0.86818 -0.48555,2.07811 0.30626,0.80539 0.79815,1.29983 1.15681,1.16198 0.82853,-0.31815 2.65429,1.19724 2.87902,2.38934 0.0983,0.52138 0.67612,1.16657 1.28339,1.43382 0.60727,0.2672 1.10389,0.65481 1.10389,0.8611 0,0.20606 0.22106,0.37532 0.49177,0.37532 0.2706,0 0.49177,-0.28814 0.49177,-0.64009 0,-1.14952 1.21545,-3.28825 1.8706,-3.29199 0.35206,-10e-4 0.97822,-0.81287 1.39127,-1.80105 0.41292,-0.98824 1.23175,-2.20213 1.81976,-2.69746 l 1.06862,-0.90056 -1.107,-0.31135 c -0.60886,-0.17154 -1.107,-0.40816 -1.107,-0.52479 0,-0.11718 0.74622,-0.98168 1.6579,-1.92039 1.05199,-1.08346 1.93866,-1.59945 2.42668,-1.41202 0.52551,0.20154 1.02007,-0.18965 1.56144,-1.23664 0.43567,-0.84248 1.00565,-1.39997 1.26677,-1.2388 0.26097,0.16133 0.60393,-0.0453 0.76255,-0.45629 0.15839,-0.41269 0.7327,-0.89189 1.27612,-1.06449 0.71899,-0.22813 0.83993,-0.46081 0.44615,-0.85487 -0.29794,-0.29777 -0.54159,-1.14494 -0.54159,-1.88303 0,-1.09296 0.36536,-1.50379 1.96812,-2.21091 1.0824,-0.47779 1.96812,-1.14935 1.96812,-1.49399 0,-0.34418 0.66351,-1.38276 1.47531,-2.30737 0.81179,-0.92455 1.47635,-2.06276 1.47635,-2.5294 0,-0.46647 0.56095,-1.28941 1.24706,-1.82908 0.79446,-0.62497 1.14993,-1.2898 0.97837,-1.83015 -0.1798,-0.56644 0.13332,-1.06364 0.941,-1.49603 1.45264,-0.77748 2.02028,-2.00762 1.16924,-2.53358 -0.77789,-0.48062 -0.21376,-1.06994 1.21179,-1.26677 0.60191,-0.0832 1.8697,-0.46477 2.81678,-0.84762 0.9471,-0.38325 2.16459,-0.86155 2.70578,-1.06241 0.78392,-0.29097 0.50377,-0.47552 -1.37779,-0.9078 -2.40911,-0.55364 -3.11555,-1.396 -1.39853,-1.66722 0.52432,-0.0827 1.06578,-0.58105 1.20349,-1.10701 0.1375,-0.52591 0.61811,-0.95552 1.06757,-0.95552 0.56424,0 0.73036,-0.27513 0.53537,-0.88918 -0.19593,-0.61711 0.18166,-1.23291 1.233555,-2.01062 0.83358,-0.61632 1.40962,-1.37784 1.28027,-1.69315 -1.01962,-2.4823 -1.02093,-2.46141 0.0612,-2.17876 0.73402,0.19191 1.1336,0.0113 1.32902,-0.6059 0.1888,-0.59474 0.98862,-0.98598 2.4661,-1.20766 2.20619,-0.3306 3.55228,-1.25533 1.82806,-1.25533 -1.28732,0 -1.68352,-0.51968 -1.01259,-1.32802 0.42644,-0.51345 0.4252,-0.82226 -0.004,-1.2512 -0.82672,-0.82662 -0.69924,-1.35598 0.32579,-1.35598 0.49239,0 1.3768,-0.55421 1.96502,-1.23048 0.58819,-0.67643 1.40284,-1.2294 1.81042,-1.2294 0.4077,0 0.74077,-0.2355 0.74077,-0.52194 0,-0.28645 0.25944,-0.36061 0.5758,-0.16474 0.4055,0.25079 0.46166,0.077 0.19089,-0.5862 -0.73872,-1.81027 -0.53751,-2.37972 0.95553,-2.71094 0.81186,-0.18059 1.31287,-0.35098 1.11324,-0.38608 -0.19961,-0.034 0.42859,-1.29649 1.39646,-2.80956 0.96866,-1.5128 2.07419,-3.50089 2.45755,-4.41848 0.4201,-1.00545 1.14965,-1.78209 1.83636,-1.95464 0.72399,-0.18172 1.36293,-0.90231 1.75128,-1.97643 0.40975,-1.13311 0.9253,-1.69111 1.5635,-1.69111 0.63116,0 0.95241,-0.33853 0.95241,-1.00636 0,-0.60363 0.5892,-1.34223 1.4722,-1.84464 1.64524,-0.93616 1.92403,-1.910706 0.61834,-2.162111 -0.65183,-0.125675 -0.4304,-0.432502 0.91299,-1.262633 2.65056,-1.638297 4.37614,-3.554493 4.37614,-4.860659 0,-0.639581 0.21568,-1.163055 0.47932,-1.163055 0.69147,0 2.08153,-2.882418 1.69318,-3.510847 -0.2239,-0.362305 0.17436,-0.419481 1.25849,-0.181719 1.45257,0.319281 1.55896,0.260973 1.25847,-0.685775 -0.36055,-1.135939 0.19678,-1.362606 1.10804,-0.451183 0.82553,0.825716 1.36076,0.09001 0.60071,-0.825828 -0.52053,-0.626958 -0.47649,-0.928633 0.25208,-1.733629 0.48515,-0.536664 1.42499,-0.974204 2.08846,-0.974204 0.9561,0 1.13258,-0.178888 0.85179,-0.861153 -0.82886,-2.013906 -0.79714,-2.515075 0.19298,-3.045003 0.56112,-0.3006 1.57762,-0.405328 2.25966,-0.234366 1.22679,0.307959 1.74841,-0.406461 0.74804,-1.02504 -0.80565,-0.498169 -0.55886,-1.634957 0.42225,-1.946369 0.65148,-0.206627 0.84875,-0.626731 0.68889,-1.463882 -0.19174,-1.002848 0.10665,-1.320997 2.03867,-2.17564 1.55622,-0.688436 2.26277,-1.296372 2.26277,-1.946313 0,-0.519681 0.66061,-1.694228 1.46805,-2.61035 0.80748,-0.916122 1.47159,-2.029077 1.47532,-2.473354 0.009,-0.920424 2.07399,-1.598217 3.49426,-1.147487 1.12626,0.35721 1.20869,-0.454579 0.22514,-2.226477 -0.59302,-1.068686 -0.58117,-1.343528 0.0933,-2.091518 0.42701,-0.473826 1.32172,-0.861153 1.98783,-0.861153 1.03549,0 1.17575,-0.182851 0.96902,-1.263651 -0.16914,-0.88493 0.035,-1.437388 0.68059,-1.840509 0.50718,-0.317017 0.92234,-0.878193 0.92234,-1.248084 0,-0.369664 0.28654,-0.562704 0.63597,-0.428538 0.34962,0.134166 1.06894,-0.08944 1.59877,-0.495905 0.66878,-0.513454 0.77464,-0.809865 0.34757,-0.970015 -0.33832,-0.126807 -0.61419,-0.568366 -0.6142,-0.980431 1e-5,-0.464203 0.28062,-0.642412 0.73765,-0.467033 0.453,0.173793 0.73766,-5.66e-4 0.73766,-0.451183 0,-0.404196 0.55396,-0.94505 1.23046,-1.202456 1.10687,-0.420613 1.41371,-1.043495 1.37053,-2.776274 -0.007,-0.309091 0.85651,-0.700947 1.9204,-0.871513 1.64624,-0.263237 1.88855,-0.45458 1.62574,-1.283409 -0.22396,-0.705645 -0.0819,-0.973128 0.51563,-0.973128 0.63374,0 0.75289,-0.284183 0.51564,-1.229459 -0.17831,-0.709268 -0.0972,-1.230421 0.19193,-1.230421 0.2758,0 0.50215,-0.449484 0.50215,-0.999112 0,-0.549685 0.33174,-1.126655 0.73765,-1.282333 0.40608,-0.155678 0.73765,-0.689625 0.73765,-1.185869 0,-1.13809 0.45351,-1.413612 2.58958,-1.57178 1.13218,-0.08378 1.63201,-0.335132 1.47635,-0.74182 -0.12941,-0.338528 0.0336,-0.615238 0.36208,-0.615238 0.3536,0 0.46924,-0.331736 0.28428,-0.814394 -0.18438,-0.48062 0.0771,-1.236705 0.63702,-1.844698 0.5218,-0.566724 1.02756,-1.473618 1.12463,-2.014811 0.11443,-0.638902 0.6316,-1.036248 1.47531,-1.133958 1.0461,-0.121711 1.36156,-0.480053 1.61642,-1.839489 0.17417,-0.928406 0.72948,-1.909517 1.2346,-2.179773 0.58746,-0.314187 0.82906,-0.83534 0.6692,-1.44622 -0.17591,-0.672585 0.41899,-1.624597 2.01169,-3.217267 1.24416,-1.244177 2.26277,-2.449067 2.26277,-2.675678 0,-0.957447 2.12288,-3.004583 3.11558,-3.004583 0.6156,0 1.60096,-0.6573 2.30115,-1.534474 2.8033,-3.512046 3.77677,-4.398221 4.52034,-4.112623 0.44197,0.169264 0.88293,-0.02831 1.0541,-0.474959 0.32717,-0.852492 2.06522,-1.039985 2.53873,-0.273993 0.45955,0.743631 1.22943,0.589595 1.22943,-0.245688 0,-0.405895 0.33278,-0.737687 0.73869,-0.737687 0.42572,0 0.75516,-0.468165 0.77604,-1.106954 0.0135,-0.38042 0.0691,-0.609521 0.14215,-0.645356 z"
       id="path24" />
  </g>
</svg>
